# xmcd CD database file
# Copyright (C) 1993-1998 Ti Kan
#
# Track frame offsets:
#	182
#	20707
#	35357
#	49695
#	71257
#	84782
#	106657
#	118745
#	133395
#	147120
#	169207
#	182607
#	196170
#	217320
#	231770
#	246470
#	259182
#
# Disc length: 3615 seconds
#
# Revision: 1
# Processed by: cddbd v1.4b41PL1 Copyright (c) Steve Scherf et al.
# Submitted via: CDValet v3.30 - Copyright (c) 1997 Greg Leichner
#
DISCID=f40e1d11
DTITLE=Coleman Hawkins - Swing
DYEAR=1900
DGENRE=
TTITLE0=Just One Of These Things
TTITLE1=My Man
TTITLE2=Under  A Blanket Of Blue
TTITLE3=Make Believe
TTITLE4=El Salon De Gutbucket
TTITLE5=Three Little Words
TTITLE6='S Wonderful
TTITLE7=I'm In The Mood For Love
TTITLE8=Bean At The Met
TTITLE9=Don't Blame Me
TTITLE10=Beyond The Blue Horizon
TTITLE11=In A Shanty In OLd Shanty town
TTITLE12=The Battle Of Saxes
TTITLE13=I Only Have Eyes For You
TTITLE14=Flame Thrower
TTITLE15=Imagination
TTITLE16=Cattin' At The Keynote
EXTD=
EXTT0=
EXTT1=
EXTT2=
EXTT3=
EXTT4=
EXTT5=
EXTT6=
EXTT7=
EXTT8=
EXTT9=
EXTT10=
EXTT11=
EXTT12=
EXTT13=
EXTT14=
EXTT15=
EXTT16=
PLAYORDER=
